<svg width="29" height="29" viewBox="0 0 29 29" fill="none" xmlns="http://www.w3.org/2000/svg">
<g clip-path="url(#clip0_1_8620)">
<path d="M3.50586 25.2596H8.17982L23.3702 9.62275C23.99 8.98473 24.3382 8.11938 24.3382 7.21708C24.3382 6.31478 23.99 5.44943 23.3702 4.8114C22.7504 4.17338 21.9097 3.81494 21.0332 3.81494C20.1567 3.81494 19.316 4.17338 18.6962 4.8114L3.50586 20.4483V25.2596Z" stroke="#00A7AC" stroke-linecap="round" stroke-linejoin="round"/>
<path d="M16.9434 6.61572L21.6173 11.4271" stroke="#00A7AC" stroke-linecap="round" stroke-linejoin="round"/>
<path d="M14.0223 9.62259L8.17982 3.6084L3.50586 8.41975L9.34831 14.4339" stroke="#00A7AC" stroke-linecap="round" stroke-linejoin="round"/>
<path d="M8.17949 9.62256L6.42676 11.4268" stroke="#00A7AC" stroke-linecap="round" stroke-linejoin="round"/>
<path d="M18.6954 14.4341L24.5379 20.4483L19.8639 25.2596L14.0215 19.2454" stroke="#00A7AC" stroke-linecap="round" stroke-linejoin="round"/>
<path d="M18.6961 20.4482L16.9434 22.2525" stroke="#00A7AC" stroke-linecap="round" stroke-linejoin="round"/>
</g>
<defs>
<clipPath id="clip0_1_8620">
<rect width="28.0437" height="28.8681" fill="white"/>
</clipPath>
</defs>
</svg>
