<svg width="26" height="26" viewBox="0 0 26 26" fill="none" xmlns="http://www.w3.org/2000/svg">
<path d="M13.0003 15.7082C14.4961 15.7082 15.7087 14.4956 15.7087 12.9998C15.7087 11.5041 14.4961 10.2915 13.0003 10.2915C11.5046 10.2915 10.292 11.5041 10.292 12.9998C10.292 14.4956 11.5046 15.7082 13.0003 15.7082Z" stroke="#00A7AC" stroke-miterlimit="10" stroke-linecap="round" stroke-linejoin="round"/>
<path d="M20.042 10.2915V15.7082" stroke="#00A7AC" stroke-miterlimit="10" stroke-linecap="round" stroke-linejoin="round"/>
<path d="M9.74967 19.4998C9.74967 20.3123 9.52219 21.0815 9.12136 21.7315C8.37386 22.9882 6.99801 23.8332 5.41634 23.8332C3.83467 23.8332 2.45883 22.9882 1.71133 21.7315C1.31049 21.0815 1.08301 20.3123 1.08301 19.4998C1.08301 17.1057 3.02217 15.1665 5.41634 15.1665C7.81051 15.1665 9.74967 17.1057 9.74967 19.4998Z" stroke="#00A7AC" stroke-miterlimit="10" stroke-linecap="round" stroke-linejoin="round"/>
<path d="M7.03202 19.4775H3.80371" stroke="#00A7AC" stroke-miterlimit="10" stroke-linecap="round" stroke-linejoin="round"/>
<path d="M5.41602 17.896V21.1352" stroke="#00A7AC" stroke-miterlimit="10" stroke-linecap="round" stroke-linejoin="round"/>
<path d="M2.16699 16.5751V9.75016C2.16699 5.9585 4.33366 4.3335 7.58366 4.3335H18.417C21.667 4.3335 23.8337 5.9585 23.8337 9.75016V16.2502C23.8337 20.0418 21.667 21.6668 18.417 21.6668H9.20866" stroke="#00A7AC" stroke-miterlimit="10" stroke-linecap="round" stroke-linejoin="round"/>
</svg>
