<svg width="87" height="33" viewBox="0 0 87 33" fill="none" xmlns="http://www.w3.org/2000/svg">
<g clip-path="url(#clip0_1_8374)">
<path d="M0.303711 0.0996094H29.4697V32.0996H0.303711V0.0996094ZM26.4419 28.7776V3.42161H3.33241V28.7616H26.4419V28.7776ZM5.96008 8.35761V18.0276C5.96008 22.4466 8.17396 25.0636 11.9163 25.0636C15.7726 25.0636 17.9865 22.4466 17.9865 18.0276V8.35761H14.9587V18.0276C14.9587 20.5186 13.9725 21.9296 11.9874 21.9296C9.88837 21.9296 8.95962 20.4566 8.95962 18.0276V8.35761H5.96008ZM21.8856 10.3326C22.9429 10.3326 23.7568 9.50261 23.7568 8.34261C23.7568 7.12061 23.0003 6.28961 21.8856 6.28961C20.8283 6.28961 20.0144 7.11961 20.0144 8.34261C20.029 9.50261 20.8438 10.3326 21.8856 10.3326ZM20.3717 11.8686V24.8756H23.3995V11.8686H20.3717ZM38.4546 19.5626C41.7248 19.5626 43.8813 17.4476 43.8813 13.9376C43.8813 10.5526 41.7822 8.37361 38.4546 8.37361H32.7408V24.9536H35.7686V19.6416H38.4546V19.5626ZM38.111 16.9306H35.7258V11.0376H38.111C39.8682 11.0376 40.797 12.1196 40.797 13.9216C40.797 15.8486 39.8537 16.9306 38.111 16.9306ZM44.8811 18.4036C44.8811 22.3056 47.1524 25.0636 50.3662 25.0636C52.2948 25.0636 53.5225 24.2956 54.2224 23.0736V24.9226H57.2502V11.8686H54.2224V13.9216C53.466 12.5736 52.2373 11.7436 50.3662 11.7436C47.095 11.7436 44.8811 14.5636 44.8811 18.4036ZM54.2079 18.4036C54.2079 20.6436 52.9227 22.1176 51.0516 22.1176C49.0099 22.1176 47.9663 20.5186 47.9663 18.4036C47.9663 16.0996 49.1375 14.6266 51.0516 14.6266C52.9656 14.6266 54.2079 16.1626 54.2079 18.4036ZM64.8206 22.0546C63.6494 22.0546 63.3641 21.4746 63.3641 20.3306V14.6896H65.9918V11.8686H63.3641V8.27961H60.3354V11.8686H58.9364V14.6886H60.3354V20.3306C60.3354 23.4026 61.5641 24.8756 64.4779 24.8756H66.0492V22.0546H64.8206ZM70.7194 13.7336V7.58961H67.6916V24.9376H70.7194V18.0266C70.7194 15.7856 71.7767 14.4376 73.5759 14.4376C75.3331 14.4376 76.2619 15.7226 76.2619 17.6976V24.8746H79.2897V17.3846C79.2897 13.9986 77.0749 11.7576 74.2768 11.7576C72.5332 11.7426 71.4194 12.4476 70.7194 13.7326V13.7336ZM79.0609 7.52761V8.04461H80.0462V11.3666H80.6322V8.04561H81.5601V7.52861L79.0609 7.52761ZM85.3589 7.52761L84.1312 10.5996L82.96 7.52761H82.26V11.3676H82.7887V8.41961L83.9599 11.3666H84.3746L85.4883 8.41961V11.3666H86.017V7.52661H85.3598L85.3589 7.52761Z" fill="#05445E"/>
</g>
<defs>
<clipPath id="clip0_1_8374">
<rect width="86.5864" height="33" fill="white" transform="translate(0.282227)"/>
</clipPath>
</defs>
</svg>
