<svg width="129" height="32" viewBox="0 0 129 32" fill="none" xmlns="http://www.w3.org/2000/svg">
<path d="M44.4329 11.0921C44.4329 10.4261 43.9644 9.88007 43.31 9.88007C42.6538 9.88007 42.1862 10.4261 42.1862 11.0921V20.9251C42.1862 21.5911 42.6547 22.1371 43.31 22.1371C43.9808 22.1371 44.4329 21.5911 44.4329 20.9251V11.0921ZM55.4941 9.88007C54.8397 9.88007 54.3867 10.4261 54.3867 11.0921V15.2921L54.4496 19.0471L53.0916 15.5301L51.3143 11.5361C50.7674 10.2901 50.144 9.88007 49.2544 9.88007C47.9438 9.88007 47.3668 10.7851 47.3668 12.0821V20.9251C47.3668 21.5911 47.8189 22.1371 48.4742 22.1371C49.1295 22.1371 49.5816 21.5911 49.5816 20.9251L49.5661 16.7771L49.5196 12.5261L50.9706 16.4181L52.7643 20.4811C53.3267 21.7791 53.9191 22.1541 54.8242 22.1541C55.9945 22.1541 56.6024 21.3691 56.6024 19.9181V11.0921C56.6024 10.4261 56.1494 9.88007 55.4941 9.88007ZM64.8864 12.3901L67.4294 12.4571C68.0227 12.4741 68.4912 11.9791 68.4912 11.2621C68.4912 10.5451 68.0227 10.0501 67.4303 10.0501L60.0659 10.0331C59.4889 10.0331 59.0049 10.5281 59.0049 11.2451C59.0049 11.9621 59.488 12.4571 60.0659 12.4401L62.6243 12.3901V20.9251C62.6243 21.5911 63.0927 22.1371 63.7481 22.1371C64.4189 22.1371 64.8874 21.5911 64.8874 20.9251V12.3891L64.8864 12.3901ZM72.4231 21.9841H77.899C78.4769 21.9841 78.9444 21.5061 78.9444 20.8401C78.9444 20.1571 78.4769 19.6801 77.899 19.6801L73.1413 19.6961V16.8461H77.2601C77.8215 16.8461 78.2736 16.3841 78.2736 15.7531C78.2736 15.1031 77.8215 14.6431 77.2601 14.6431L73.1404 14.6771V12.3211H77.899C78.4769 12.3211 78.9444 11.8431 78.9444 11.1611C78.9444 10.4771 78.4769 10.0171 77.899 10.0171L72.4395 10.0341C71.4406 10.0341 70.8782 10.6481 70.8782 11.7411V20.2771C70.8782 21.3691 71.4406 21.9841 72.4231 21.9841ZM87.8637 17.1181C89.3457 16.6911 90.2198 15.4281 90.2198 13.7551C90.2198 11.8941 89.1115 10.0331 86.4592 10.0331H83.0267C82.0287 10.0331 81.4673 10.6481 81.4673 11.7401V20.9251C81.4673 21.5911 81.9349 22.1371 82.6212 22.1371C83.292 22.1371 83.7759 21.5911 83.7759 20.9251L83.7605 17.7151H85.648L87.5675 21.5051C87.8792 22.0851 88.5336 22.3251 89.1434 21.9831C89.7513 21.6251 89.9227 20.9081 89.5955 20.3281L87.8637 17.1181ZM83.7605 12.3041H86.4747C87.3953 12.3041 87.9731 12.9351 87.9731 13.8741C87.9731 14.7961 87.4263 15.4791 86.5057 15.4791H83.7605V12.3041ZM97.1157 22.2051C99.3934 22.2051 100.86 21.0781 101.359 19.2521C101.625 18.2101 101.063 17.4591 100.22 17.4591C99.706 17.4591 99.3624 17.7491 99.1592 18.3811C98.8475 19.3371 98.0828 19.9351 96.9909 19.9351C95.2591 19.9351 94.5099 18.6551 94.5099 15.9911C94.5099 13.3791 95.2746 12.1331 96.9909 12.1331C98.0673 12.1331 98.6916 12.6281 99.0817 13.7721C99.3004 14.4211 99.6586 14.7111 100.189 14.7111C101 14.7111 101.594 13.9941 101.344 13.0041C100.844 10.9891 99.3934 9.86207 97.0537 9.86207C93.8391 9.86207 92.2013 12.0131 92.2013 15.9911C92.2013 20.0031 93.8391 22.2051 97.1157 22.2051ZM108.211 22.1711C111.518 22.1711 113.157 19.9521 113.157 15.9911C113.157 11.9971 111.472 9.79407 108.211 9.79407C104.935 9.79407 103.296 12.0311 103.281 15.9911C103.281 19.9691 104.95 22.1711 108.211 22.1711ZM108.211 19.8841C106.37 19.8841 105.575 18.6041 105.575 15.9911C105.575 13.3451 106.386 12.0651 108.195 12.0651C110.021 12.0651 110.879 13.3451 110.863 15.9911C110.863 18.6211 110.052 19.8841 108.211 19.8841ZM127.679 12.0131C127.679 10.6651 126.914 9.86307 125.728 9.86307C124.761 9.86307 124.028 10.4431 123.67 11.7741L122.468 16.0591L121.673 19.1491L120.908 16.0591L119.628 11.7741C119.269 10.5281 118.646 9.86207 117.554 9.86207C116.352 9.86207 115.603 10.6481 115.603 12.0131V20.9251C115.603 21.5911 116.04 22.1371 116.68 22.1371C117.32 22.1371 117.756 21.5911 117.756 20.9251L117.741 16.6231L117.631 12.0131L118.864 16.7251L120.174 20.8901C120.455 21.8121 120.985 22.1201 121.673 22.1201C122.311 22.1201 122.826 21.8641 123.092 20.9251L124.34 16.7251L125.666 11.9791L125.542 16.6231V20.9251C125.542 21.5911 125.994 22.1371 126.618 22.1371C127.258 22.1371 127.694 21.5911 127.694 20.9251L127.679 12.0131ZM25.9162 17.6051C25.9162 17.8891 25.8141 18.1621 25.6318 18.3631C25.542 18.4624 25.4352 18.5412 25.3174 18.595C25.1997 18.6488 25.0735 18.6765 24.946 18.6765C24.8184 18.6765 24.6922 18.6488 24.5745 18.595C24.4568 18.5412 24.3499 18.4624 24.2601 18.3631C24.078 18.1614 23.9758 17.889 23.9757 17.6051V8.02207C23.9757 7.73707 24.0778 7.46407 24.2601 7.26307C24.3499 7.16375 24.4568 7.08491 24.5745 7.03112C24.6922 6.97732 24.8184 6.94962 24.946 6.94962C25.0735 6.94962 25.1997 6.97732 25.3174 7.03112C25.4352 7.08491 25.542 7.16375 25.6318 7.26307C25.8141 7.46407 25.9162 7.73707 25.9162 8.02207V17.6051ZM25.5789 24.2451C25.4513 24.3871 21.8439 27.7111 15.2296 27.7111C8.6153 27.7111 5.03153 24.4041 4.87932 24.2621C4.73405 24.1271 4.62859 23.9478 4.57634 23.747C4.52409 23.5462 4.52739 23.3328 4.58584 23.1341C4.62419 23.0019 4.68581 22.8792 4.76722 22.7731C4.93425 22.56 5.17145 22.4282 5.42686 22.4067C5.68227 22.3851 5.93505 22.4755 6.12981 22.6581C6.18632 22.7021 9.40916 25.5921 15.2214 25.5921C21.0336 25.5921 24.2811 22.6841 24.313 22.6581C24.5096 22.4762 24.7634 22.3864 25.0198 22.4079C25.2762 22.4294 25.5146 22.5606 25.6838 22.7731C25.8471 22.9847 25.9285 23.2581 25.9105 23.5347C25.8924 23.8113 25.7764 24.0692 25.5871 24.2531L25.5789 24.2451ZM4.53571 8.02207C4.5503 7.73607 4.66605 7.46907 4.85836 7.27807C5.05067 7.08707 5.30405 6.98807 5.56199 7.00207C5.80079 7.01707 6.02682 7.13007 6.19544 7.31807C6.36496 7.50607 6.46431 7.75707 6.47616 8.02207V17.5871C6.47616 17.8721 6.37317 18.1441 6.19179 18.3461C6.10198 18.4454 5.99514 18.5242 5.87742 18.578C5.75971 18.6318 5.63345 18.6595 5.50594 18.6595C5.37842 18.6595 5.25216 18.6318 5.13445 18.578C5.01673 18.5242 4.90989 18.4454 4.82008 18.3461C4.63771 18.1442 4.53549 17.8713 4.53571 17.5871V8.02207ZM9.40278 5.89407C9.41645 5.60907 9.5322 5.34107 9.72452 5.15007C9.91683 4.96007 10.1702 4.86007 10.4281 4.87507C10.6679 4.89007 10.893 5.00207 11.0625 5.19007C11.2311 5.37907 11.3305 5.63007 11.3423 5.89407V20.0781C11.3423 20.3631 11.2402 20.6361 11.0579 20.8371C10.9681 20.9364 10.8613 21.0152 10.7436 21.069C10.6259 21.1228 10.4996 21.1505 10.3721 21.1505C10.2446 21.1505 10.1183 21.1228 10.0006 21.069C9.88289 21.0152 9.77605 20.9364 9.68624 20.8371C9.50387 20.6352 9.40165 20.3623 9.40187 20.0781L9.40278 5.89407ZM14.2926 5.36207C14.2926 5.07807 14.3947 4.80507 14.577 4.60407C14.6668 4.50475 14.7737 4.42591 14.8914 4.37212C15.0091 4.31832 15.1353 4.29062 15.2629 4.29062C15.3904 4.29062 15.5166 4.31832 15.6343 4.37212C15.7521 4.42591 15.8589 4.50475 15.9487 4.60407C16.131 4.80407 16.2322 5.07807 16.2322 5.36207V20.7871C16.2322 21.0721 16.1301 21.3451 15.9487 21.5461C15.8589 21.6455 15.752 21.7245 15.6342 21.7784C15.5164 21.8323 15.39 21.86 15.2624 21.86C15.1348 21.86 15.0084 21.8323 14.8906 21.7784C14.7728 21.7245 14.6659 21.6455 14.5761 21.5461C14.3941 21.344 14.2922 21.0712 14.2926 20.7871V5.36207ZM19.1023 5.89407C19.1023 5.61007 19.2053 5.33707 19.3867 5.13607C19.4765 5.03675 19.5833 4.95791 19.701 4.90412C19.8187 4.85032 19.945 4.82262 20.0725 4.82262C20.2 4.82262 20.3263 4.85032 20.444 4.90412C20.5617 4.95791 20.6686 5.03675 20.7584 5.13607C20.9406 5.33607 21.0427 5.61007 21.0427 5.89407V20.0781C21.0427 20.3631 20.9406 20.6361 20.7584 20.8371C20.6686 20.9364 20.5617 21.0152 20.444 21.069C20.3263 21.1228 20.2 21.1505 20.0725 21.1505C19.945 21.1505 19.8187 21.1228 19.701 21.069C19.5833 21.0152 19.4765 20.9364 19.3867 20.8371C19.2043 20.6352 19.1021 20.3623 19.1023 20.0781V5.89407ZM26.1814 0.0440682H4.31059C3.83327 0.0399374 3.35998 0.140015 2.91825 0.338476C2.47652 0.536937 2.07519 0.829817 1.7376 1.20007C1.05104 1.95027 0.664183 2.96895 0.662109 4.03207V27.9681C0.666666 29.0306 1.05315 30.0483 1.7376 30.8001C2.07576 31.1696 2.47717 31.4621 2.91873 31.6609C3.3603 31.8596 3.83332 31.9606 4.31059 31.9581H26.1805C26.6573 31.962 27.1301 31.862 27.5713 31.6637C28.0126 31.4654 28.4135 31.1729 28.7507 30.8031C29.435 30.0538 29.8224 29.0387 29.829 27.9781V4.03207C29.824 2.97115 29.4383 1.9551 28.7553 1.20407C28.4181 0.834964 28.0178 0.542504 27.5774 0.343448C27.1369 0.144393 26.665 0.0426559 26.1887 0.0440682" fill="#05445E"/>
</svg>
