<svg width="103" height="26" viewBox="0 0 103 26" fill="none" xmlns="http://www.w3.org/2000/svg">
<path d="M26.8173 18.265C26.8173 18.579 26.7034 18.881 26.502 19.103L21.6631 24.412C21.6029 24.4787 21.5259 24.5242 21.442 24.5427C21.3581 24.5613 21.271 24.552 21.192 24.5161C21.1129 24.4801 21.0453 24.4192 20.9979 24.341C20.9505 24.2628 20.9254 24.1709 20.9258 24.077V12.19L26.7517 5.83496H26.8191L26.8173 18.265Z" fill="#05445E"/>
<path d="M22.9533 1.58983C22.8723 1.50105 22.7625 1.45117 22.648 1.45117C22.5335 1.45117 22.4236 1.50105 22.3426 1.58983L15.1478 9.48283H15.0475V18.3908L15.1478 18.6248L26.8141 5.82483L22.9533 1.58983ZM3.48047 18.2648C3.48047 18.5808 3.5944 18.8808 3.79674 19.1028L8.63464 24.4118C8.69483 24.4789 8.7719 24.5247 8.85597 24.5435C8.94004 24.5622 9.02729 24.553 9.10657 24.517C9.18584 24.4811 9.25353 24.42 9.30098 24.3415C9.34842 24.2631 9.37347 24.171 9.3729 24.0768V12.1898L3.54883 5.83583H3.48138L3.48047 18.2648Z" fill="#05445E"/>
<path d="M7.9538 1.58983C7.87279 1.50105 7.76297 1.45117 7.64847 1.45117C7.53396 1.45117 7.42414 1.50105 7.34313 1.58983L3.48047 5.82584L15.1468 18.6258V9.48384L7.95471 1.58983H7.9538ZM34.0564 18.2648V6.40683H36.9366V7.99883C37.6019 6.79083 38.568 6.18583 39.8778 6.18583C41.1875 6.18583 42.1746 6.80584 42.8791 8.08584C44.0075 6.78284 44.8733 6.18583 46.2223 6.18583C48.6594 6.18583 50.0302 7.68783 50.0302 10.4518V18.2748H46.9286V11.8438C46.9286 10.1858 46.6069 9.43484 45.4184 9.43484C44.2089 9.43484 43.5563 10.2518 43.5563 11.8438V18.2748H40.4246V11.8438C40.4246 10.1858 40.1029 9.43484 38.9135 9.43484C37.7049 9.43484 37.0523 10.2518 37.0523 11.8438V18.2748L34.0564 18.2648ZM53.8601 7.94383C54.451 7.28734 55.1669 6.78226 55.9564 6.46472C56.746 6.14717 57.5898 6.02503 58.4274 6.10701C59.265 6.18899 60.0758 6.47308 60.8017 6.93895C61.5276 7.40482 62.1506 8.04095 62.6263 8.80184C63.2634 9.81863 63.6128 11.0191 63.6307 12.2528C63.6307 14.0428 63.0856 15.5228 61.9992 16.7178C61.4657 17.3183 60.8259 17.7927 60.1192 18.1121C59.4125 18.4314 58.6537 18.5889 57.8895 18.5748C56.2371 18.5748 54.9092 17.9548 53.7999 16.6748C52.7654 15.5023 52.1936 13.9297 52.2086 12.2978C52.2057 11.488 52.3504 10.6857 52.634 9.93803C52.9176 9.19035 53.3344 8.51235 53.8601 7.94383ZM57.9087 15.2588C59.3187 15.2588 60.4671 13.9548 60.4671 12.3408C60.4671 10.7048 59.3187 9.40283 57.9087 9.40283C56.4987 9.40283 55.3503 10.7058 55.3503 12.3408C55.3503 13.9548 56.5187 15.2588 57.9087 15.2588ZM65.8072 18.2648V6.40683H68.8286L68.7876 7.99883C69.4529 6.80483 70.4592 6.18583 71.8892 6.18583C74.1259 6.18583 75.576 7.73283 75.576 10.4518V18.2748H72.3941V11.8438C72.3941 10.1858 72.0724 9.43484 70.8429 9.43484C69.5942 9.43484 68.9298 10.2518 68.9298 11.8438V18.2748L65.8072 18.2648ZM89.2129 7.94383C89.8037 7.287 90.5196 6.78161 91.3093 6.46386C92.099 6.1461 92.9429 6.02385 93.7807 6.10584C94.6185 6.18783 95.4294 6.47204 96.1554 6.93812C96.8814 7.40421 97.5044 8.04063 97.98 8.80184C98.6169 9.81863 98.966 11.0192 98.9835 12.2528C98.9835 14.0428 98.4393 15.5228 97.3511 16.7178C96.8177 17.3182 96.1781 17.7926 95.4715 18.112C94.765 18.4313 94.0064 18.5888 93.2423 18.5748C91.5908 18.5748 90.261 17.9548 89.1527 16.6748C88.1184 15.5022 87.5469 13.9296 87.5623 12.2978C87.5593 11.4881 87.7038 10.6858 87.9872 9.93814C88.2707 9.19047 88.6874 8.51244 89.2129 7.94383ZM93.2624 15.2588C94.6724 15.2588 95.8208 13.9548 95.8208 12.3408C95.8208 10.7048 94.6724 9.40283 93.2624 9.40283C91.8524 9.40283 90.704 10.7058 90.704 12.3408C90.704 13.9548 91.8715 15.2588 93.2624 15.2588ZM77.9776 18.2648V15.7888L82.429 9.46883H77.9767V6.40683H86.0137V9.21383L82.0873 15.2038H86.0948V18.2748L77.9767 18.2648H77.9776Z" fill="#05445E"/>
</svg>
