<svg width="106" height="27" viewBox="0 0 106 27" fill="none" xmlns="http://www.w3.org/2000/svg">
<g clip-path="url(#clip0_1_8372)">
<path d="M12.6657 7.613C12.2036 9.977 10.4783 11.658 7.21534 11.658C3.44199 11.658 1.54803 9.009 1.54803 5.821C1.54803 2.76 3.41283 0 7.34567 0C10.8009 0 12.4205 1.967 12.6803 3.981H9.35539C9.24953 3.49712 8.98384 3.07352 8.60973 2.79219C8.23562 2.51085 7.7797 2.39177 7.33018 2.458C5.78074 2.458 5.03154 3.791 5.03154 5.742C5.03154 7.518 5.63855 9.168 7.34476 9.168C7.79737 9.22698 8.25393 9.10105 8.62731 8.81424C9.00069 8.52742 9.26473 8.09981 9.36906 7.613H12.6657ZM25.4441 5.805C25.4441 8.946 23.5355 11.658 19.5452 11.658C15.874 11.658 13.8497 9.088 13.8497 5.821C13.8497 2.744 15.8156 0 19.6902 0C23.3623 0 25.4441 2.633 25.4441 5.805ZM17.3323 5.758C17.3323 7.709 18.0405 9.136 19.702 9.136C21.4228 9.136 21.9578 7.502 21.9578 5.821C21.9578 3.886 21.3362 2.458 19.6154 2.458C17.984 2.458 17.3341 3.933 17.3341 5.758H17.3323ZM36.7914 7.645L36.9072 2.427H36.878L34.7097 11.405H32.0055L30.0395 2.396H30.0104L30.199 7.773V11.406H27.2496V0.254H31.9772L33.5668 7.376H33.5814L35.3021 0.254H40.0152V11.404H36.7914V7.645ZM42.4141 0.254H48.1242C50.5678 0.254 52.2758 1.588 52.2758 3.888C52.2758 6.252 50.6708 7.615 48.1415 7.615H45.6953V11.406H42.4141V0.254ZM45.6953 5.171H47.6184C48.5007 5.171 49.0211 4.771 49.0211 3.918C49.0211 3.204 48.631 2.696 47.6184 2.696H45.6953V5.171ZM53.776 0.254H57.0873V8.819H62.5377L62.1476 11.404H53.776V0.254ZM64.7333 11.404V7.534C64.7338 7.3768 64.6823 7.22475 64.5884 7.106L60.4979 0.254H64.3724L66.5407 4.727C67.032 3.585 67.9279 1.936 68.7528 0.254H72.3074L68.1284 7.217C68.068 7.33195 68.0427 7.46514 68.0564 7.597V11.404H64.7333ZM4.80186 24.254L4.15109 26.33H0.839844L4.68519 15.18H8.99355L13.0841 26.33H9.54315L8.84954 24.252L4.80186 24.254ZM8.08302 21.669L6.78149 17.469H6.72407C6.50715 18.389 6.05873 19.975 5.50913 21.669H8.08302ZM14.1824 15.181H19.3265C22.9978 15.181 24.8489 17.639 24.8489 20.574C24.8489 24.016 22.5502 26.332 19.2973 26.332H14.1824V15.181ZM17.479 23.83H18.91C20.5433 23.83 21.3708 22.751 21.3708 20.658C21.3708 18.945 20.7201 17.692 18.91 17.676H17.479V23.83ZM29.1709 26.33L25.2107 15.18H28.81L30.2993 20.18C30.6693 21.361 30.9829 22.563 31.2381 23.78H31.2672C31.5542 22.5079 31.9016 21.2532 32.3081 20.021L33.6962 15.183H37.238L33.2068 26.33H29.1709ZM40.058 24.254L39.4091 26.33H36.0969L39.9423 15.18H44.2506L48.3411 26.33H44.7993L44.1057 24.252L40.058 24.254ZM43.3392 21.669L42.0377 17.469H41.9802C41.7633 18.389 41.3149 19.975 40.7653 21.669H43.3392ZM49.4394 26.33V15.181H53.2857L56.9579 22.064H57.0153C56.9141 21.002 56.9287 18.987 56.9287 17.147V15.181H59.8918V26.33H56.2633L52.3597 18.669H52.3168C52.408 19.938 52.418 21.429 52.418 23.618V26.33H49.4394ZM64.6713 17.75H61.299V15.181H71.3039V17.75H67.9707V26.33H64.6713V17.75ZM74.2888 24.254L73.6408 26.33H70.3295L74.1749 15.18H78.4832L82.5729 26.33H79.031L78.3365 24.252L74.2888 24.254ZM77.57 21.669L76.2685 17.469H76.211C75.9941 18.389 75.5457 19.975 74.997 21.669H77.57ZM94.0059 26.331H91.7364C91.6481 25.9977 91.5805 25.6583 91.5341 25.315C90.8833 26.108 90.0302 26.584 88.1618 26.584C87.465 26.6355 86.7662 26.5225 86.1125 26.2527C85.4589 25.9829 84.8655 25.5626 84.3724 25.02C83.8792 24.4774 83.4978 23.8252 83.2537 23.1073C83.0096 22.3893 82.9086 21.6224 82.9575 20.858C82.9575 17.686 84.794 14.926 88.798 14.926C92.0217 14.926 93.7133 16.718 94.0169 18.59H90.7129C90.5776 18.1646 90.3119 17.804 89.9611 17.5698C89.6103 17.3356 89.1963 17.2424 88.7898 17.306C87.0699 17.306 86.4483 18.861 86.4483 20.669C86.4483 22.636 87.1565 24.142 88.8627 24.142C90.3082 24.142 90.8286 23.242 90.8286 22.382V22.27H88.8335V19.828H94.0086L94.0059 26.331ZM104.819 21.89H99.3834V23.762H105.455L105.079 26.33H96.1286V15.181H105.106V17.75H99.3816V19.305H104.817L104.819 21.89Z" fill="#05445E"/>
</g>
<defs>
<clipPath id="clip0_1_8372">
<rect width="104.815" height="27" fill="white" transform="translate(0.839844)"/>
</clipPath>
</defs>
</svg>
