<svg width="110" height="32" viewBox="0 0 110 32" fill="none" xmlns="http://www.w3.org/2000/svg">
<g clip-path="url(#clip0_1_8376)">
<path d="M40.2806 23.9469H42.7542L42.3441 21.8409V9.28785H39.978V15.0139C39.2671 14.1089 38.2873 13.5779 37.1316 13.5779C34.7646 13.5779 32.9326 15.7219 32.9326 18.8709C32.9326 22.0189 34.7646 24.1629 37.1316 24.1629C37.6864 24.1687 38.2353 24.0372 38.7374 23.7782C39.2395 23.5192 39.6819 23.1393 40.0318 22.6669L40.2806 23.9469ZM87.0573 16.3919C87.5377 16.3919 87.9824 16.5289 88.3917 16.8429L89.5127 14.0699C88.9959 13.7149 88.3917 13.5579 87.8047 13.5579C86.7365 13.5579 85.8469 14.0879 85.2782 15.0729L85.0285 13.7929H82.5922L82.9841 15.7799V23.9449H85.3484V17.4729C85.6683 16.8029 86.2735 16.3909 87.0564 16.3909H87.0582L87.0573 16.3919ZM93.9952 21.4279C92.6262 21.4279 91.6118 20.4249 91.6118 18.8699C91.6118 17.2959 92.6262 16.3129 93.9952 16.3129C95.3842 16.3129 96.3804 17.2959 96.3804 18.8699C96.3804 20.4249 95.3833 21.4279 93.9952 21.4279ZM35.2276 18.8699C35.2276 17.2959 36.2411 16.3129 37.611 16.3129C38.9991 16.3129 39.9962 17.2959 39.9962 18.8699C39.9962 20.4249 38.9991 21.4279 37.6119 21.4279C36.242 21.4279 35.2276 20.4249 35.2276 18.8699ZM104.476 21.4279C103.106 21.4279 102.092 20.4249 102.092 18.8699C102.092 17.2959 103.106 16.3129 104.476 16.3129C105.864 16.3129 106.86 17.2959 106.86 18.8699C106.86 20.4249 105.864 21.4279 104.476 21.4279ZM48.5008 16.1549C49.7285 16.1549 50.5288 16.7849 50.7776 17.9449H46.2232C46.4902 16.7849 47.2914 16.1549 48.5008 16.1549ZM76.8082 16.1549C78.0359 16.1549 78.8371 16.7849 79.0859 17.9449H74.5315C74.7985 16.7849 75.5987 16.1549 76.8082 16.1549ZM65.2612 23.9469H69.0692L71.5429 13.7939H68.9635L67.1488 22.0189L65.3332 13.7939H62.7885L65.2622 23.9459L65.2612 23.9469ZM59.1583 23.9469H61.5234V13.7939H59.1592L59.1583 23.9469ZM48.8636 24.1349C50.1806 24.1349 51.4794 23.7409 52.564 22.9739L51.6571 20.7309C50.8031 21.2229 49.8607 21.5179 48.8991 21.5179C47.6541 21.5179 46.7819 20.9869 46.4082 20.0029H53.0617C53.1337 19.6289 53.1701 19.2558 53.1701 18.8029C53.1701 15.6549 51.195 13.5499 48.5437 13.5499C45.875 13.5499 43.9181 15.6739 43.9181 18.8419C43.9181 22.0688 45.8568 24.1349 48.8636 24.1349ZM109.155 18.8699C109.155 15.7219 107.163 13.5769 104.476 13.5769C101.789 13.5769 99.7965 15.7219 99.7965 18.8699C99.7965 22.0189 101.789 24.1629 104.476 24.1629C107.163 24.1629 109.155 22.0189 109.155 18.8699ZM77.1291 24.1629C78.4452 24.1629 79.744 23.7689 80.8295 23.0019L79.9217 20.7579C79.0677 21.2499 78.1243 21.5449 77.1637 21.5449C75.9187 21.5449 75.0464 21.0149 74.6727 20.0299H81.3271C81.3982 19.6559 81.4338 19.2819 81.4338 18.8299C81.4338 15.6819 79.4587 13.5769 76.8073 13.5769C74.1395 13.5769 72.1818 15.7009 72.1818 18.8689C72.1818 22.0958 74.1213 24.1619 77.1281 24.1619L77.1291 24.1629ZM93.9961 24.1629C96.683 24.1629 98.6745 22.0189 98.6745 18.8699C98.6745 15.7219 96.6821 13.5769 93.9952 13.5769C91.3083 13.5769 89.3159 15.7219 89.3159 18.8699C89.3159 22.0189 91.3092 24.1629 93.9961 24.1629ZM54.6749 23.9459H57.041V9.28785H54.6749V23.9459ZM60.3504 12.3959C61.1862 12.3959 61.827 11.6869 61.827 10.7429C61.827 9.79885 61.1871 9.08985 60.3504 9.08985C59.4964 9.08985 58.8557 9.79885 58.8557 10.7429C58.8557 11.6869 59.4964 12.3959 60.3504 12.3959ZM19.6976 0.0478516L18.3433 14.1159L16.0318 2.25585L8.78684 3.93585L11.0964 15.7959L0.651367 18.2199L2.4952 27.6929L20.8643 31.9529L25.0651 21.6579L27.0648 0.893852L19.6967 0.0478516H19.6976ZM13.8936 20.4559C13.5145 20.8349 13.0141 20.7999 12.4827 20.6069C11.9523 20.4149 11.7171 19.7149 11.9176 18.8689C12.0671 18.2399 12.7716 18.1459 13.1244 18.1389C13.2578 18.1362 13.39 18.1659 13.5117 18.2259C13.7606 18.3489 14.1825 18.6119 14.2682 19.0129C14.3922 19.5909 14.2728 20.0759 13.8945 20.4549L13.8936 20.4559ZM19.2109 21.1089C18.9357 21.6308 18.2138 21.6989 17.5029 21.3199C17.0244 21.0639 17.028 20.4118 17.08 20.0149C17.1073 19.7979 17.1885 19.5929 17.3124 19.4219C17.4838 19.1849 17.7681 18.8769 18.099 18.8669C18.6358 18.8519 19.097 19.1139 19.3586 19.5899C19.6202 20.0639 19.4889 20.5869 19.2128 21.1099H19.2109V21.1089Z" fill="#05445E"/>
</g>
<defs>
<clipPath id="clip0_1_8376">
<rect width="109.372" height="32" fill="white" transform="translate(0.216797)"/>
</clipPath>
</defs>
</svg>
