<svg width="100" height="38" viewBox="0 0 100 38" fill="none" xmlns="http://www.w3.org/2000/svg">
<g clip-path="url(#clip0_1_8361)">
<path d="M45.5482 12.2148H6.56152V23.7498H45.5482V12.2148Z" fill="#05445E"/>
<path d="M21.3898 16.59C21.5119 16.78 21.5639 17.045 21.5812 17.33H19.5341C19.5687 17.026 19.6553 16.78 19.7601 16.59C19.9333 16.305 20.2104 16.134 20.575 16.134C20.9578 16.134 21.2175 16.286 21.3907 16.589L21.3898 16.59ZM13.3236 18.184C13.1495 18.317 13.0629 18.525 13.0629 18.791C13.0629 18.962 13.0975 19.095 13.1495 19.209C13.1841 19.266 13.2014 19.304 13.3227 19.399C13.3227 19.399 13.5833 19.626 14.173 19.589C14.5896 19.569 14.9532 19.475 14.9532 19.475V18.032C14.9532 18.032 14.5886 17.956 14.173 17.956C13.566 17.937 13.3236 18.184 13.3236 18.184ZM32.1475 16.153C31.7665 16.153 31.5058 16.305 31.3326 16.589C31.1595 16.893 31.072 17.311 31.072 17.842C31.072 18.374 31.1585 18.81 31.3326 19.114C31.5058 19.418 31.7838 19.55 32.1475 19.55C32.5303 19.55 32.79 19.399 32.9805 19.114C33.1537 18.81 33.2585 18.393 33.2585 17.842C33.2585 17.311 33.1719 16.874 32.9805 16.589C32.8073 16.286 32.5293 16.153 32.1475 16.153ZM50.6259 16.95C50.6259 23.48 45.8372 28.756 39.9211 28.756C39.1919 28.756 38.4983 28.68 37.8038 28.529C37.1246 29.8583 36.1349 30.9651 34.9365 31.7356C33.7381 32.5061 32.3743 32.9125 30.9854 32.913C29.8016 32.9185 28.6324 32.6264 27.5675 32.059C26.8805 33.8225 25.7365 35.3256 24.2775 36.3818C22.8185 37.438 21.1089 38.0007 19.3609 38C17.5355 38.0016 15.7535 37.3892 14.255 36.2454C12.7566 35.1016 11.6136 33.4814 10.9803 31.603C10.4252 31.736 9.85282 31.793 9.28044 31.793C4.69956 31.813 0.98637 27.713 0.98637 22.644C0.981739 21.0385 1.36258 19.4599 2.09057 18.0671C2.81857 16.6743 3.86804 15.5165 5.1334 14.71C4.60984 13.3859 4.33816 11.9584 4.33499 10.515C4.33499 4.707 8.65519 0 13.9816 0C17.1051 0 19.8813 1.632 21.6514 4.138C22.4647 3.2037 23.442 2.4597 24.5244 1.95082C25.6067 1.44194 26.7718 1.17872 27.9494 1.177C31.2287 1.177 34.0906 3.17 35.6009 6.15C36.9608 5.48636 38.4327 5.14362 39.9211 5.144C45.8372 5.144 50.6259 10.44 50.6259 16.95ZM11.6219 18.83C11.6219 17.956 10.911 17.633 10.2347 17.387L10.1472 17.349C9.6441 17.178 9.21117 17.007 9.21117 16.646V16.627C9.21117 16.324 9.47093 16.096 9.85282 16.096C10.2867 16.096 10.8071 16.248 11.1543 16.456C11.1543 16.456 11.2583 16.532 11.2929 16.419C11.3102 16.362 11.4843 15.869 11.5007 15.811C11.5189 15.754 11.4834 15.716 11.4487 15.678C11.005 15.3982 10.5032 15.2481 9.99136 15.242H9.88745C8.9505 15.242 8.30885 15.849 8.30885 16.742V16.76C8.30885 17.69 9.01977 17.994 9.69605 18.203L9.80087 18.241C10.2867 18.411 10.7205 18.544 10.7205 18.924V18.944C10.7205 19.284 10.4425 19.551 10.0096 19.551C9.8355 19.551 9.29775 19.551 8.68983 19.133C8.62056 19.095 8.58592 19.057 8.51665 19.019C8.48202 19 8.41275 18.962 8.37812 19.076L8.1694 19.683C8.13476 19.778 8.18763 19.797 8.18763 19.797C8.27421 19.873 8.37812 19.93 8.4647 19.987C8.96781 20.272 9.45361 20.367 9.95672 20.367C10.9803 20.405 11.6219 19.798 11.6219 18.83ZM15.8555 19.987V17.102C15.8555 16.475 15.7006 16.001 15.4044 15.716C15.11 15.432 14.6588 15.28 14.0864 15.28C13.8777 15.28 13.5305 15.318 13.3227 15.356C13.3227 15.356 12.6983 15.489 12.4386 15.716C12.4386 15.716 12.3857 15.754 12.4203 15.849L12.6291 16.456C12.6464 16.532 12.7156 16.514 12.7156 16.514C12.7156 16.514 12.733 16.494 12.7676 16.494C13.3236 16.172 14.0163 16.172 14.0163 16.172C14.3289 16.172 14.5722 16.248 14.7281 16.381C14.8839 16.514 14.9714 16.703 14.9714 17.14V17.273C14.7281 17.235 14.503 17.216 14.503 17.216C14.3808 17.216 14.2423 17.196 14.0518 17.196C13.8085 17.196 13.566 17.235 13.3409 17.292C13.1148 17.349 12.9061 17.462 12.733 17.595C12.5598 17.728 12.4203 17.899 12.3164 18.108C12.2102 18.3302 12.1566 18.5781 12.1606 18.829C12.1606 19.114 12.2125 19.342 12.2991 19.55C12.3857 19.74 12.5069 19.911 12.681 20.044C12.8369 20.177 13.0456 20.272 13.2707 20.329C13.4958 20.386 13.7565 20.424 14.0345 20.424C14.3289 20.424 14.6242 20.404 14.9013 20.348C15.1792 20.291 15.5265 20.215 15.6304 20.196C15.717 20.176 15.8382 20.139 15.8382 20.139C15.8564 20.063 15.8555 19.987 15.8555 19.987ZM17.7121 13.457C17.7121 13.401 17.6775 13.363 17.6255 13.363H16.8627C16.8098 13.363 16.7752 13.401 16.7752 13.458V20.177C16.7752 20.234 16.8098 20.272 16.8627 20.272H17.6255C17.6775 20.272 17.7121 20.234 17.7121 20.177V13.457ZM22.3969 16.665C22.3304 16.3902 22.2055 16.1366 22.0323 15.925C21.8409 15.697 21.6678 15.545 21.4946 15.469C21.2371 15.3459 20.9597 15.2813 20.6789 15.279C20.3143 15.279 19.9853 15.356 19.7255 15.489C19.4715 15.6171 19.2462 15.8049 19.0656 16.039C18.8924 16.267 18.753 16.551 18.6837 16.855C18.5975 17.1817 18.5566 17.5209 18.5625 17.861C18.5625 18.221 18.6145 18.563 18.701 18.867C18.7876 19.171 18.9271 19.437 19.1176 19.664C19.309 19.892 19.5514 20.063 19.8467 20.196C20.1411 20.31 20.4884 20.386 20.8876 20.386C21.7206 20.386 22.1545 20.176 22.345 20.063C22.3796 20.044 22.4142 20.006 22.3623 19.911L22.1709 19.341C22.1362 19.247 22.067 19.285 22.067 19.285C21.8592 19.361 21.5639 19.512 20.8876 19.512C20.4364 19.512 20.1065 19.361 19.8987 19.132C19.6899 18.905 19.586 18.563 19.5687 18.089H22.4489C22.4489 18.089 22.5181 18.089 22.5354 18.013C22.4835 17.994 22.5701 17.368 22.3969 16.665ZM26.5257 18.848C26.5257 17.956 25.8148 17.633 25.1385 17.387L25.0519 17.349C24.5488 17.178 24.115 17.007 24.115 16.646V16.627C24.115 16.324 24.3747 16.096 24.7566 16.096C25.1905 16.096 25.7109 16.248 26.0582 16.456C26.0582 16.456 26.1621 16.532 26.1967 16.419C26.2149 16.362 26.3881 15.869 26.4045 15.811C26.4227 15.754 26.3872 15.716 26.3525 15.678C25.9088 15.3982 25.407 15.2481 24.8952 15.242H24.7913C23.8543 15.242 23.2126 15.849 23.2126 16.742V16.76C23.2126 17.69 23.9236 17.994 24.6008 18.203L24.7047 18.241C25.1905 18.411 25.6243 18.544 25.6243 18.924V18.944C25.6243 19.284 25.3463 19.551 24.9134 19.551C24.7393 19.551 24.2016 19.551 23.5945 19.133C23.5244 19.095 23.4724 19.057 23.4214 19.019C23.4031 19 23.3166 18.962 23.2819 19.076L23.0732 19.683C23.0386 19.778 23.0914 19.797 23.0914 19.797C23.178 19.873 23.2819 19.93 23.3685 19.987C23.8716 20.272 24.3574 20.367 24.8605 20.367C25.8841 20.405 26.5266 19.797 26.5266 18.848H26.5257ZM29.9965 15.488C29.9965 15.432 29.9782 15.394 29.9099 15.394H28.9893C28.9893 15.374 29.0422 15.014 29.1461 14.691C29.1863 14.5587 29.2585 14.4409 29.3548 14.35C29.4245 14.2759 29.5069 14.2177 29.5973 14.179C29.6972 14.1384 29.8033 14.1191 29.9099 14.122C29.9965 14.122 30.0831 14.141 30.1523 14.141C30.2398 14.16 30.2745 14.179 30.3091 14.179C30.3957 14.217 30.413 14.179 30.4303 14.122L30.6554 13.457C30.6737 13.382 30.6208 13.363 30.6035 13.344C30.5139 13.3076 30.421 13.2821 30.3264 13.268C30.1945 13.2434 30.061 13.2307 29.9272 13.23C29.4068 13.23 28.9902 13.4 28.7123 13.704C28.4352 14.027 28.2265 14.501 28.1399 15.128L28.1052 15.337H27.4463C27.4463 15.337 27.3588 15.337 27.3415 15.432L27.2375 16.096C27.2375 16.153 27.2558 16.191 27.3241 16.191H27.9667L27.3241 20.139C27.2722 20.462 27.2202 20.709 27.151 20.917C27.0817 21.107 27.0297 21.259 26.9432 21.373C26.8763 21.4729 26.7863 21.5513 26.6825 21.6C26.5708 21.6402 26.4537 21.6594 26.3361 21.657C26.266 21.657 26.1794 21.638 26.1101 21.638C26.0408 21.619 26.0062 21.6 25.9542 21.581C25.9542 21.581 25.8841 21.544 25.8494 21.638C25.8321 21.714 25.658 22.208 25.6416 22.284C25.6234 22.341 25.6416 22.398 25.6936 22.417C25.7802 22.454 25.8494 22.473 25.9542 22.492C26.1092 22.53 26.2486 22.53 26.3699 22.53C26.6305 22.53 26.873 22.492 27.0808 22.416C27.2894 22.3382 27.4753 22.2008 27.6194 22.018C27.7926 21.809 27.8974 21.6 27.984 21.316C28.1019 20.9718 28.1889 20.6158 28.2438 20.253L28.8863 16.248H29.8406C29.8406 16.248 29.9272 16.248 29.9445 16.153L29.9965 15.489V15.488ZM34.2301 17.842C34.2301 17.482 34.1954 17.159 34.1089 16.836C34.0309 16.5393 33.9009 16.2621 33.7261 16.02C33.5457 15.7859 33.3208 15.5982 33.0671 15.47C32.7837 15.3294 32.4758 15.2577 32.1648 15.26C31.8184 15.26 31.5058 15.337 31.246 15.47C30.992 15.5981 30.7667 15.7858 30.5862 16.02C30.413 16.248 30.2918 16.514 30.2043 16.836C30.118 17.1627 30.0772 17.5019 30.0831 17.842C30.0831 18.202 30.1177 18.544 30.2043 18.848C30.2918 19.152 30.413 19.437 30.5871 19.664C30.7602 19.892 30.9854 20.082 31.2451 20.196C31.5058 20.329 31.8184 20.386 32.1657 20.386C32.512 20.386 32.8073 20.329 33.068 20.196C33.3278 20.063 33.5529 19.892 33.727 19.664C33.9001 19.437 34.0214 19.171 34.1089 18.848C34.1954 18.526 34.2301 18.203 34.2301 17.842ZM37.6133 15.432C37.4539 15.3867 37.2915 15.3549 37.1275 15.337C36.763 15.317 36.5716 15.375 36.3811 15.47C36.2079 15.565 35.9992 15.697 35.8953 15.868V15.488C35.8953 15.432 35.8606 15.394 35.8087 15.394H35.0795C35.0285 15.394 34.993 15.431 34.993 15.489V20.177C34.993 20.234 35.0276 20.272 35.0805 20.272H35.8433C35.8953 20.272 35.9299 20.234 35.9299 20.177V17.842C35.9299 17.52 35.9655 17.216 36.0347 17.007C36.104 16.817 36.1733 16.665 36.2945 16.551C36.3906 16.4445 36.5098 16.3664 36.6408 16.324C36.7803 16.286 36.9197 16.267 37.0236 16.267C37.1795 16.267 37.3353 16.305 37.3353 16.305C37.3873 16.305 37.4228 16.267 37.4393 16.21C37.4921 16.058 37.6307 15.64 37.648 15.545C37.6826 15.489 37.6297 15.45 37.6133 15.431V15.432ZM41.291 20.025L41.0832 19.399C41.0485 19.304 40.9793 19.342 40.9793 19.342C40.8516 19.3999 40.7173 19.4383 40.5801 19.456C40.4248 19.4795 40.2683 19.4922 40.1116 19.494C39.6951 19.494 39.366 19.361 39.14 19.094C38.9149 18.829 38.7754 18.412 38.7754 17.824C38.7754 17.292 38.8975 16.894 39.1054 16.589C39.3141 16.286 39.6258 16.134 40.0423 16.134C40.3887 16.134 40.6666 16.172 40.9446 16.267C40.9446 16.267 41.0139 16.305 41.0485 16.21C41.1178 15.982 41.1698 15.83 41.2563 15.583C41.2746 15.508 41.2217 15.488 41.2044 15.469C41.0216 15.3875 40.8286 15.3366 40.632 15.318C40.4406 15.28 40.2328 15.28 39.9904 15.28C39.6258 15.28 39.3141 15.356 39.0361 15.47C38.7718 15.5974 38.5351 15.7849 38.3416 16.02C38.1684 16.248 38.0125 16.514 37.926 16.836C37.8335 17.1617 37.7865 17.5009 37.7865 17.842C37.7865 18.62 37.9779 19.228 38.3589 19.683C38.7417 20.139 39.2958 20.367 40.0423 20.367C40.4762 20.367 40.9264 20.272 41.2399 20.139C41.2573 20.139 41.3265 20.119 41.291 20.025ZM45.438 16.665C45.3715 16.3902 45.2466 16.1366 45.0734 15.925C44.8829 15.697 44.7089 15.545 44.5357 15.469C44.273 15.3441 43.9898 15.2795 43.7036 15.279C43.339 15.279 43.0264 15.356 42.7493 15.489C42.4952 15.6171 42.27 15.8048 42.0894 16.039C41.9162 16.267 41.7777 16.551 41.7075 16.855C41.6213 17.1817 41.5804 17.5209 41.5863 17.861C41.5863 18.221 41.6382 18.563 41.7075 18.867C41.795 19.171 41.9335 19.437 42.124 19.664C42.3154 19.892 42.5579 20.063 42.8532 20.196C43.1476 20.31 43.4948 20.386 43.894 20.386C44.7271 20.386 45.1609 20.176 45.3341 20.063C45.3687 20.044 45.4034 20.006 45.3514 19.911L45.16 19.341C45.1263 19.247 45.0561 19.285 45.0561 19.285C44.8483 19.361 44.553 19.512 43.8767 19.512C43.4256 19.512 43.0956 19.361 42.8878 19.132C42.68 18.905 42.5752 18.563 42.5579 18.089H45.438C45.438 18.089 45.5073 18.089 45.5255 18.013C45.5255 17.994 45.6121 17.368 45.438 16.665ZM43.6334 16.134C43.2524 16.134 42.9917 16.304 42.8185 16.589C42.6973 16.779 42.6271 17.026 42.5925 17.329H44.6405C44.6223 17.045 44.5712 16.779 44.4491 16.589C44.2577 16.286 43.9979 16.134 43.6334 16.134ZM99.2483 13.952L98.7798 14.672C98.3158 14.3017 97.7567 14.1025 97.183 14.103C96.7838 14.103 96.472 14.18 96.246 14.35C96.0209 14.521 95.917 14.768 95.917 15.072C95.917 15.299 95.9689 15.489 96.0555 15.641C96.1421 15.793 96.2989 15.907 96.524 16.021C96.7491 16.116 97.0608 16.229 97.4774 16.343C98.1372 16.514 98.6057 16.78 98.9183 17.103C99.231 17.444 99.3868 17.881 99.3868 18.413C99.3868 19.096 99.1608 19.627 98.6923 20.007C98.2238 20.387 97.6515 20.577 96.9569 20.577C96.0382 20.577 95.2744 20.31 94.6501 19.76L95.1359 19.039C95.413 19.247 95.6909 19.399 95.9689 19.513C96.246 19.608 96.5586 19.665 96.905 19.665C97.3388 19.665 97.6688 19.57 97.9112 19.361C98.1546 19.152 98.2758 18.868 98.2758 18.507C98.2758 18.26 98.2238 18.071 98.1372 17.919C98.0507 17.767 97.8939 17.634 97.6861 17.539C97.3751 17.4075 97.0563 17.2996 96.7318 17.216C96.0728 17.026 95.587 16.78 95.2917 16.476C94.9964 16.173 94.8406 15.736 94.8406 15.186C94.8406 14.597 95.0493 14.123 95.4658 13.762C95.8824 13.402 96.4374 13.23 97.131 13.23C97.9641 13.211 98.6577 13.458 99.2483 13.952ZM89.4276 16.4C89.4449 15.736 89.6354 15.185 89.9471 14.749C90.2779 14.312 90.7282 14.103 91.3179 14.103C91.9085 14.103 92.3423 14.313 92.655 14.73C92.9667 15.148 93.1234 15.717 93.1407 16.4H89.4276ZM94.1634 17.311C94.1807 17.197 94.1807 17.046 94.1807 16.818C94.1807 15.736 93.9383 14.863 93.4525 14.198C92.9667 13.534 92.2558 13.211 91.3361 13.211C90.7109 13.211 90.174 13.363 89.7229 13.667C89.2717 13.971 88.9418 14.407 88.6984 14.957C88.4733 15.508 88.3521 16.134 88.3521 16.856C88.3521 17.976 88.6291 18.886 89.1669 19.551C89.7229 20.234 90.4684 20.557 91.4573 20.557C91.9431 20.557 92.3943 20.481 92.8108 20.329C93.21 20.177 93.591 19.969 93.9556 19.684L93.4871 18.924C93.2013 19.1358 92.8927 19.3081 92.5684 19.437C92.232 19.5564 91.8801 19.6142 91.5266 19.608C90.8667 19.608 90.3818 19.399 90.0173 18.982C89.6709 18.564 89.4613 17.995 89.4276 17.273H94.1634V17.311ZM84.9852 20.386H86.0443V16.628C86.0443 15.907 86.1993 15.338 86.5301 14.882C86.86 14.426 87.3276 14.217 87.9346 14.217C88.1087 14.217 88.2473 14.217 88.3174 14.237L88.3858 13.23C88.2126 13.211 88.0914 13.192 88.0221 13.192C87.0505 13.192 86.3907 13.629 86.0097 14.502C85.9949 14.1341 85.9657 13.7671 85.9222 13.402H84.8986C84.9506 13.932 84.9852 14.445 84.9852 14.958V20.386ZM77.681 17.672C77.681 18.526 77.8897 19.228 78.288 19.76C78.6872 20.291 79.2951 20.557 80.0744 20.557C81.0825 20.557 81.828 20.121 82.2801 19.247H82.2965C82.3147 19.703 82.3484 20.064 82.3831 20.348H83.4066C83.3525 19.8314 83.3236 19.312 83.32 18.792V13.402H82.2628V17.122C82.2628 17.842 82.0878 18.432 81.7405 18.906C81.3942 19.38 80.9257 19.627 80.336 19.627C79.7982 19.627 79.399 19.437 79.1557 19.039C78.8959 18.659 78.7747 18.127 78.7747 17.501V13.401H77.681V17.672ZM75.0961 11.275L74.0206 11.693V13.401L72.9096 13.534V14.294H74.038V18.602C74.038 19.228 74.1929 19.722 74.5238 20.064C74.8528 20.405 75.2866 20.576 75.8417 20.576C76.2245 20.576 76.5526 20.519 76.8306 20.406L76.6757 19.551C76.472 19.6131 76.2618 19.6451 76.0504 19.646C75.4252 19.646 75.1135 19.266 75.1135 18.526V14.293H76.796V13.401H75.1135V11.275H75.0961ZM66.6635 20.386H67.7217V16.381C67.7217 15.755 67.8949 15.223 68.2421 14.806C68.5894 14.388 69.0579 14.18 69.6303 14.18C70.1862 14.18 70.6019 14.37 70.8452 14.73C71.0876 15.09 71.2271 15.546 71.2271 16.116V20.386H72.2844V15.87C72.2844 15.11 72.0939 14.484 71.6956 13.972C71.3128 13.459 70.7067 13.212 69.9082 13.212C69.3878 13.212 68.9367 13.326 68.5721 13.535C68.2109 13.7243 67.9049 14.0199 67.688 14.389H67.6698C67.6572 14.0585 67.6283 13.729 67.5832 13.402H66.577C66.6289 13.934 66.6635 14.446 66.6635 14.959V20.386ZM60.6955 16.4C60.7128 15.736 60.9033 15.185 61.215 14.749C61.5449 14.312 61.9961 14.103 62.5867 14.103C63.1764 14.103 63.6102 14.313 63.9228 14.73C64.2346 15.148 64.3904 15.717 64.4077 16.4H60.6955ZM65.4495 17.311C65.4668 17.197 65.4668 17.046 65.4668 16.818C65.4668 15.736 65.2235 14.863 64.7377 14.198C64.2519 13.534 63.541 13.211 62.6213 13.211C61.9961 13.211 61.4583 13.363 61.0081 13.667C60.556 13.971 60.227 14.407 59.9836 14.957C59.7585 15.508 59.6373 16.134 59.6373 16.856C59.6373 17.976 59.9144 18.886 60.4521 19.551C61.0081 20.234 61.7536 20.557 62.7425 20.557C63.2283 20.557 63.6795 20.481 64.096 20.329C64.4952 20.177 64.8762 19.969 65.2408 19.684L64.7723 18.924C64.4862 19.1358 64.1773 19.3081 63.8527 19.437C63.541 19.551 63.211 19.608 62.8118 19.608C62.1528 19.608 61.667 19.399 61.3025 18.982C60.9561 18.564 60.7465 17.995 60.7128 17.273H65.4495V17.311ZM59.5161 13.401H58.4223L56.6004 19.209H56.5657L54.6745 13.401H53.5297L55.9587 20.386H57.1554L59.5161 13.401Z" fill="#05445E"/>
</g>
<defs>
<clipPath id="clip0_1_8361">
<rect width="99.3465" height="38" fill="white" transform="translate(0.238281)"/>
</clipPath>
</defs>
</svg>
