<svg width="129" height="32" viewBox="0 0 129 32" fill="none" xmlns="http://www.w3.org/2000/svg">
<g clip-path="url(#clip0_1_8359)">
<path d="M67.6705 19.333C64.4504 19.333 61.8984 22.067 61.8984 25.667C61.8984 29.267 64.5115 32 67.6705 32C70.8906 32 73.4435 29.2 73.4435 25.667C73.4435 22.067 70.8915 19.333 67.6705 19.333ZM67.6705 21.867C69.6146 21.867 71.0729 23.467 71.0729 25.667C71.0729 27.867 69.5544 29.467 67.6705 29.467C65.7264 29.467 64.2681 27.867 64.2681 25.667C64.207 23.467 65.7264 21.867 67.6705 21.867ZM115.733 27.933V22.133H118.468V19.6H115.733V16.2L113.364 17V19.6H111.358V22.133H113.364V27.933C113.364 31.067 114.822 32.2 118.468 31.667V29.333C116.645 29.467 115.733 29.467 115.733 27.933ZM128.007 29.267H122.599L128.007 22.133V19.733H119.622V22.133H125.03L119.622 29.267V31.733H128.007V29.267ZM80.1271 19.467V22.267C78.5467 22.133 76.7238 22.933 76.7238 25.667V31.733H74.354V19.667H76.7238V21.667C77.3928 20.067 78.7289 19.467 80.1271 19.467ZM85.8381 19.333C82.618 19.333 80.066 22.067 80.066 25.667C80.066 29.267 82.6791 32 85.8381 32C89.0592 32 91.6112 29.2 91.6112 25.667C91.6713 22.067 89.1193 19.333 85.8381 19.333ZM85.8381 21.867C87.7831 21.867 89.2414 23.467 89.2414 25.667C89.2414 27.867 87.7221 29.467 85.8381 29.467C83.8941 29.467 82.4358 27.867 82.4358 25.667C82.4358 23.467 83.9551 21.867 85.8381 21.867ZM107.287 19.667L103.824 31.733H101.515L99.2062 23.6L96.8975 31.733H94.5879L91.1245 19.667H93.6163L95.7427 28L98.0514 19.667H100.3L102.609 28L104.735 19.667H107.287ZM110.447 19.667H108.077V31.733H110.447V19.667ZM33.3394 0.8V5.8C32.428 5.067 31.1529 4.467 29.938 4.467C26.5346 4.467 23.8003 7.733 24.1649 11.533C24.4693 14.467 26.6568 16.867 29.33 17.2C30.8494 17.333 32.2466 16.867 33.3403 16V16.933H35.7711V0L33.3394 0.8ZM33.2793 10.867C33.2803 11.4239 33.1665 11.9738 32.9462 12.4756C32.726 12.9773 32.4052 13.4178 32.0077 13.7642C31.6102 14.1105 31.1465 14.3537 30.6512 14.4754C30.1559 14.5971 29.6419 14.5942 29.1477 14.467C27.8717 14.2 26.8391 13.067 26.5347 11.6C26.1099 9.2 27.8107 7.067 29.938 7.067C31.7608 7.067 33.2793 8.733 33.2793 10.867ZM9.88636 4.867V5.667C8.97493 4.933 7.75998 4.467 6.54413 4.467C3.14265 4.467 0.408341 7.733 0.772916 11.533C1.07642 14.467 3.26387 16.867 5.93802 17.2C7.45648 17.333 8.85462 16.867 9.94834 16V16.933H12.3782V4.867H9.88636ZM9.88636 10.867C9.88741 11.4239 9.77355 11.9738 9.55334 12.4756C9.33312 12.9773 9.01225 13.4178 8.61478 13.7642C8.21731 14.1105 7.75355 14.3537 7.25825 14.4754C6.76295 14.5971 6.24897 14.5942 5.75482 14.467C4.47881 14.2 3.44525 13.067 3.14174 11.6C2.7161 9.2 4.41775 7.067 6.54413 7.067C8.367 7.067 9.88636 8.733 9.88636 10.867ZM19.0609 4.533C17.5424 4.533 16.3876 5.133 15.6585 6.4V4.8H13.2888V16.867H15.6585V10.4C15.6585 7.933 16.8743 6.933 18.4539 6.933C19.9723 6.933 20.8837 7.867 20.8837 9.733V16.867H23.2535V9.533C23.3145 6.4 21.5527 4.533 19.0609 4.533ZM63.2354 13.333C62.6886 14.2 61.7161 14.8 60.379 14.8C58.6172 14.8 57.22 13.867 56.8554 11.933H65.6052C65.6653 11.6 65.6653 11.2 65.6653 10.867C65.6653 7.4 63.4177 4.533 60.1366 4.533C56.6731 4.533 54.3635 7.333 54.3635 10.867C54.3635 14.467 56.7333 17.2 60.3188 17.2C62.4452 17.2 64.1469 16.2 65.1185 14.6L63.2354 13.333ZM60.1967 6.933C61.655 6.933 62.9921 7.8 63.3567 9.867H56.8554C57.22 8.067 58.4349 6.933 60.1967 6.933ZM90.3953 14.867C91.7324 14.867 92.7049 14.2 93.2518 13.4L95.1959 14.667C94.1632 16.333 92.5226 17.267 90.3953 17.267C86.7496 17.267 84.4409 14.533 84.4409 10.933C84.4409 7.333 86.8106 4.6 90.213 4.6C93.4942 4.6 95.7427 7.467 95.7427 10.933C95.7427 11.067 95.7427 11.267 95.6817 11.467C95.6817 11.667 95.6215 11.8 95.6215 12H86.8717C87.2363 13.867 88.6335 14.867 90.3953 14.867ZM93.3119 9.867C93.0084 7.8 91.6112 6.933 90.1529 6.933C88.3902 6.933 87.1752 8.067 86.8106 9.867H93.3119ZM110.447 16.933H108.077V14.6H110.447V16.933ZM96.8975 16.933H99.2663V10.467C99.2663 8 100.482 7 102.062 7C103.52 7 104.493 8 104.493 9.8V16.867H106.862V9.467C106.862 6.333 105.1 4.533 102.67 4.533C101.15 4.533 99.9955 5.133 99.2663 6.4V4.867H96.8975V16.933ZM68.8253 8.2C68.8253 7.333 69.5544 6.933 70.4048 6.933C71.2552 6.933 71.9843 7.333 72.41 8.133L74.4762 7C73.686 5.467 72.2277 4.533 70.4048 4.533C68.1563 4.533 66.3945 5.933 66.3945 8.2C66.3945 10.733 68.3386 11.333 70.0402 11.867H70.1013C70.1614 11.867 70.2225 11.933 70.2836 11.933C71.4384 12.333 72.2887 12.6 72.2887 13.467C72.2887 14.4 71.4985 14.8 70.4048 14.8C69.3721 14.8 68.5209 14.333 68.0961 13.467L65.9698 14.6C66.6989 16.2 68.2784 17.2 70.3446 17.2C72.7144 17.2 74.6585 15.867 74.6585 13.467C74.6585 10.867 72.5922 10.2 70.9517 9.733C69.8579 9.4 68.8253 9.067 68.8253 8.2ZM77.9998 8.2C77.9998 7.333 78.7289 6.933 79.5802 6.933C80.4306 6.933 81.1597 7.333 81.6455 8.2L83.7118 7.067C82.9215 5.533 81.4031 4.6 79.6404 4.6C77.3928 4.6 75.6301 6 75.6301 8.267C75.6301 10.8 77.5751 11.4 79.2758 11.933H79.4581C80.5518 12.333 81.5243 12.667 81.5243 13.533C81.5243 14.467 80.674 14.867 79.6404 14.867C78.5467 14.867 77.7574 14.4 77.3317 13.533L75.2053 14.667C75.9345 16.267 77.4529 17.267 79.5802 17.267C82.0101 17.267 83.8941 15.933 83.8941 13.533C83.8941 10.933 81.95 10.333 80.2483 9.8H80.1872C80.066 9.8 80.005 9.733 79.8837 9.733C78.8511 9.333 77.9998 9.067 77.9998 8.2ZM42.5149 7.467V4.667C41.1176 4.667 39.7805 5.267 39.1125 6.867V4.867H36.7427V16.933H39.1125V10.867C39.1125 8.133 40.9353 7.333 42.5149 7.467ZM53.3919 14.6V21.2C54.1211 19.933 55.275 19.333 56.7943 19.333C59.2251 19.333 60.9869 21.133 60.9869 24.267V31.733H58.6172V24.6C58.6172 22.8 57.6447 21.8 56.1864 21.8C54.6069 21.8 53.3919 22.8 53.3919 25.267V31.733H51.0222V16.733C50.2931 17.067 49.5028 17.267 48.5914 17.267C44.9457 17.267 42.637 14.533 42.637 10.933C42.637 7.333 45.0067 4.6 48.4091 4.6C51.6903 4.6 53.9388 7.467 53.9388 10.933C53.9388 11.067 53.9388 11.267 53.8777 11.467C53.8777 11.667 53.8167 11.8 53.8167 12H45.0669C45.4315 13.867 46.8296 14.867 48.5914 14.867C49.6241 14.867 50.4143 14.467 51.0222 13.933C51.2045 13.8 51.3257 13.6 51.4469 13.4L53.3919 14.6ZM51.508 9.867C51.1434 7.8 49.8063 6.933 48.348 6.933C46.5862 6.933 45.3713 8.067 45.0669 9.867H51.508Z" fill="#05445E"/>
</g>
<defs>
<clipPath id="clip0_1_8359">
<rect width="128.512" height="32" fill="white" transform="translate(0.327148)"/>
</clipPath>
</defs>
</svg>
