<svg width="125" height="20" viewBox="0 0 125 20" fill="none" xmlns="http://www.w3.org/2000/svg">
<g clip-path="url(#clip0_1_8368)">
<path d="M8.76655 9.15H14.4439C14.5469 9.785 14.6708 10.917 14.6708 12.299C14.6708 16.104 11.9867 19.955 7.98181 19.955C4.08086 19.955 0.653864 16.217 0.673916 11.031C0.694879 5.595 4.45182 2.084 9.40638 2.084C9.94322 2.084 10.5621 2.152 11.0169 2.197L12.6885 8.041L11.9867 8.29L10.2112 6.5C8.66356 4.96 7.60994 4.463 6.53718 4.463C5.09165 4.463 3.93595 5.618 3.93595 7.929C3.93595 12.232 6.74317 16.694 9.84023 16.694C11.3058 16.694 12.0277 16.105 12.5445 15.494L8.74559 10.035V9.152H8.76655V9.15ZM29.4315 12.593C29.4315 16.738 26.5414 20 22.5566 20C18.5727 20 15.6825 16.738 15.6825 12.593C15.6825 8.448 18.5718 5.187 22.5566 5.187C26.5414 5.21 29.4315 8.471 29.4315 12.593ZM24.8069 11.801C23.7952 8.448 22.4736 6.455 20.906 7.021C19.3365 7.588 19.3365 10.057 20.3062 13.386C21.3179 16.738 22.6395 18.732 24.2081 18.166C25.7976 17.622 25.7976 15.153 24.8069 11.801ZM42.6647 13.545L42.9746 14.677C42.5608 17.191 40.8272 19.955 37.3793 19.955C33.4783 19.955 30.4223 16.353 30.4223 11.167C30.4223 5.595 34.1592 2.061 38.7829 2.061C39.4646 2.061 40.0425 2.129 40.3934 2.174L42.0659 8.018L41.3641 8.268L39.5886 6.478C38.061 4.983 37.1314 4.417 36.0796 4.417C34.634 4.417 33.6843 5.617 33.6843 7.905C33.6843 12.208 35.8517 16.105 39.0308 16.105C40.9922 16.081 42.0449 14.904 42.6647 13.545ZM57.7344 17.395L58.0032 18.301C57.7963 18.686 56.8885 19.909 55.299 19.909C53.1517 19.909 52.2849 18.528 51.6651 16.648C51.0663 18.415 49.7037 19.932 47.2264 19.932C44.997 19.932 43.7994 18.324 43.7994 16.557C43.7994 14.111 45.6369 12.39 49.5597 10.147C49.0639 9.128 47.9492 8.652 46.7725 8.652C45.3279 8.63 43.7174 9.309 42.8916 10.532L42.6027 9.558C43.2225 7.724 45.286 5.278 48.589 5.278C51.5621 5.278 53.5645 7.271 54.4933 10.396L56.2688 16.399C56.5376 17.305 56.9505 17.554 57.2805 17.554C57.4454 17.599 57.6314 17.509 57.7344 17.395ZM50.4064 12.933L49.8687 11.143C48.4031 12.367 47.6812 13.93 47.6812 15.063C47.6812 16.535 48.3621 17.214 49.2908 17.214C50.8804 17.214 51.2112 15.584 50.4055 12.934L50.4064 12.933ZM68.5103 9.65L67.8285 9.9C66.4249 9.197 65.909 9.129 64.7524 9.129C64.0506 9.129 63.3898 9.469 63.3898 9.469V17.124C63.3898 17.917 63.7416 18.506 64.7114 18.824V19.684H58.2311V18.824C59.0778 18.506 59.1608 17.917 59.1608 17.124V8.97C59.1608 7.498 58.7679 6.977 57.4053 6.366V5.505H63.3506L63.2476 8.585H63.3096L63.8045 7.883C64.7752 6.456 66.0348 5.437 67.2315 5.437H67.3354L68.5103 9.65ZM81.6605 18.846V19.706H76.334L76.355 17.872H76.231C75.8508 18.4819 75.3388 18.979 74.7408 19.3189C74.1429 19.6588 73.4774 19.831 72.804 19.82C69.8519 19.82 68.0354 17.102 68.0354 13.591C68.0354 8.971 70.8846 5.618 75.5292 5.618C75.9002 5.618 76.252 5.641 76.252 5.641V4.485C76.252 3.239 75.6732 2.809 74.7445 2.718V1.948L80.2368 0H80.4647V17.146C80.4847 17.939 80.8147 18.528 81.6614 18.845L81.6605 18.846ZM76.252 15.041V7.61C75.9522 7.46902 75.6284 7.39982 75.3023 7.407C73.7738 7.407 71.8953 8.675 71.8953 12.254C71.8953 15.561 73.052 17.373 74.6415 17.373C75.2193 17.395 76.252 17.078 76.252 15.04V15.041ZM89.2163 18.846V19.706H82.6102V18.846C83.456 18.529 83.8078 17.94 83.8078 17.147V4.485C83.8078 3.239 83.229 2.809 82.3003 2.718V1.948L87.7926 0H88.0205V17.146C88.0205 17.939 88.3504 18.528 89.2172 18.845L89.2163 18.846ZM102.697 12.98L102.986 13.953C102.552 17.26 100.096 19.956 96.896 19.956C92.7873 19.956 90.145 16.581 90.145 12.323C90.145 8.449 92.6223 5.323 96.1113 5.323C98.6505 5.323 100.529 7.023 101.293 9.31L94.5217 14.316C95.4715 15.426 96.8131 16.196 98.3616 16.196C100.488 16.196 102.099 14.588 102.697 12.98ZM92.7873 9.763C92.7873 11.009 93.1801 12.323 93.8409 13.41L94.9756 12.21C95.7604 11.417 96.4002 10.533 96.4002 9.31C96.4002 8.382 95.8224 7.272 94.6867 7.272C93.655 7.294 92.7873 8.178 92.7873 9.763ZM110.17 10.714C112.668 12.096 113.679 13.455 113.679 15.358C113.679 17.645 112.008 19.956 108.416 19.956C106.495 19.956 105.402 19.616 104.472 19.186L103.254 15.041L103.936 14.814L104.534 15.448C106.371 17.351 107.941 18.597 109.158 18.597C110.067 18.597 110.562 17.963 110.562 17.328C110.562 16.694 110.459 15.969 108.911 15.108L106.619 13.84C104.596 12.708 103.646 11.326 103.646 9.74C103.646 7.023 105.814 5.437 108.602 5.437C110.48 5.437 111.554 5.731 111.554 5.731L112.606 9.333L111.925 9.559L111.512 9.152C109.365 7.09 108.622 6.66 107.714 6.66C107.073 6.66 106.516 7.113 106.516 7.747C106.516 8.2 106.598 8.767 107.879 9.469L110.17 10.714ZM121.029 10.737C123.506 12.164 124.539 13.455 124.539 15.357C124.539 17.645 122.866 19.956 119.275 19.956C117.354 19.956 116.26 19.616 115.332 19.186L114.113 15.041L114.795 14.814L115.393 15.448C117.23 17.351 118.8 18.597 120.017 18.597C120.926 18.597 121.421 17.963 121.421 17.328C121.421 16.694 121.318 15.992 119.769 15.108L117.478 13.795C115.455 12.662 114.506 11.303 114.506 9.718C114.506 7 116.673 5.414 119.46 5.414C121.339 5.414 122.413 5.709 122.413 5.709L123.465 9.31L122.784 9.537L122.371 9.129C120.224 7.068 119.48 6.637 118.573 6.637C117.932 6.637 117.375 7.09 117.375 7.725C117.375 8.178 117.458 8.721 118.738 9.446L121.029 10.737Z" fill="#05445E"/>
</g>
<defs>
<clipPath id="clip0_1_8368">
<rect width="124.867" height="20" fill="white" transform="translate(0.132812)"/>
</clipPath>
</defs>
</svg>
