<svg width="58" height="33" viewBox="0 0 58 33" fill="none" xmlns="http://www.w3.org/2000/svg">
<g clip-path="url(#clip0_1_8370)">
<path d="M5.27228 25.4704C3.62896 25.5274 1.98564 25.1324 0.445312 24.4004L0.855459 21.0204C2.19481 21.7563 3.67137 22.1418 5.16928 22.1464C6.14452 22.1464 6.76156 21.8084 6.76156 21.1324C6.76156 19.2734 0.702337 19.7244 0.702337 14.9354C0.702337 11.8364 3.26985 10.2594 6.50454 10.2594C7.99382 10.3154 9.48311 10.5974 10.8694 11.1614L10.4593 14.4844C9.19785 13.9375 7.86011 13.6327 6.50454 13.5834C5.73438 13.5834 5.0672 13.8654 5.0672 14.4284C5.0672 16.2314 11.2805 15.8934 11.2805 20.5684C11.2805 23.7244 8.76399 25.5274 5.27228 25.4704ZM22.0637 25.1894V16.8504C22.0637 14.9344 21.2935 14.0334 19.8553 14.0334C19.1881 14.0334 18.4699 14.2024 17.9048 14.5964V25.1904H13.3859V10.7664L17.8018 10.3724L17.6988 12.7384H17.8537C18.3768 11.9654 19.0583 11.3382 19.8432 10.9076C20.628 10.4769 21.4942 10.2549 22.3717 10.2594C24.6822 10.2594 26.6856 11.8364 26.6856 15.4994V25.1894H22.0637ZM37.5198 10.5974H41.9876L36.7496 25.0764C35.2093 29.4144 32.9499 32.4004 29.6122 32.4004C28.585 32.4004 27.6097 32.1754 26.6856 31.6684L28.431 28.6254C28.688 28.6824 28.996 28.6824 29.2531 28.6824C30.7934 28.6824 31.9236 27.0484 32.6928 25.1324L27.2497 10.5974H32.2827L34.2332 17.0764C34.5421 18.2594 34.7472 19.4424 34.9012 20.6824C35.1063 19.4994 35.3114 18.3154 35.6204 17.1894L37.5198 10.5974ZM51.8476 25.1894L48.2519 18.3154H47.8928V25.1894H43.3739V8.11941L47.8928 0.399414V16.3444C48.766 15.1604 51.7956 10.5974 51.7956 10.5974H57.3417L52.0526 16.6824L57.4957 25.1894H51.8476Z" fill="#05445E"/>
</g>
<defs>
<clipPath id="clip0_1_8370">
<rect width="57.4205" height="33" fill="white" transform="translate(0.209961)"/>
</clipPath>
</defs>
</svg>
