<svg width="35" height="28" viewBox="0 0 35 28" fill="none" xmlns="http://www.w3.org/2000/svg">
<path d="M26 7.53125L33.5938 5" stroke="#00A7AC"/>
<path d="M26.2814 11.6637L34.2715 11.1842" stroke="#00A7AC"/>
<path d="M26.2812 15.9109L34.1233 17.5156" stroke="#00A7AC"/>
<path d="M12.3943 6.82226V22.3159C12.394 22.7967 12.2289 23.2618 11.928 23.6295C11.6272 23.9972 11.2099 24.2438 10.7498 24.3259C10.2896 24.408 9.8161 24.3202 9.41263 24.0781C9.00915 23.8361 8.70162 23.4552 8.5442 23.0026L6.12505 15.8693M20.2816 15.0783C21.1781 15.0783 22.0379 14.7117 22.6719 14.0591C23.3058 13.4066 23.6619 12.5215 23.6619 11.5986C23.6619 10.6758 23.3058 9.79073 22.6719 9.13817C22.0379 8.48561 21.1781 8.11901 20.2816 8.11901V15.0783ZM6.12505 15.8705C5.16868 15.4519 4.38217 14.706 3.89861 13.7591C3.41506 12.8122 3.26417 11.7224 3.47147 10.6741C3.67877 9.62582 4.23153 8.68346 5.03621 8.0065C5.8409 7.32953 6.84807 6.95954 7.8873 6.95913H9.95152C14.5712 6.95913 18.5431 5.52784 20.2816 3.47949V19.7178C18.5431 17.6694 14.5724 16.2382 9.95152 16.2382H7.8873C7.28182 16.2391 6.68241 16.114 6.12505 15.8705Z" stroke="#00A7AC" stroke-linecap="round" stroke-linejoin="round"/>
</svg>
