<svg width="26" height="26" viewBox="0 0 26 26" fill="none" xmlns="http://www.w3.org/2000/svg">
<path d="M10.3997 21.6668H15.5997C19.933 21.6668 21.6663 19.9335 21.6663 15.6002V10.4002C21.6663 6.06683 19.933 4.3335 15.5997 4.3335H10.3997C6.06634 4.3335 4.33301 6.06683 4.33301 10.4002V15.6002C4.33301 19.9335 6.06634 21.6668 10.3997 21.6668Z" stroke="#00A7AC" stroke-linecap="round" stroke-linejoin="round"/>
<path d="M11.3747 18.4168H14.6247C17.333 18.4168 18.4163 17.3335 18.4163 14.6252V11.3752C18.4163 8.66683 17.333 7.5835 14.6247 7.5835H11.3747C8.66634 7.5835 7.58301 8.66683 7.58301 11.3752V14.6252C7.58301 17.3335 8.66634 18.4168 11.3747 18.4168Z" stroke="#00A7AC" stroke-linecap="round" stroke-linejoin="round"/>
<path d="M8.67773 4.33317V2.1665" stroke="#00A7AC" stroke-linecap="round" stroke-linejoin="round"/>
<path d="M13 4.33317V2.1665" stroke="#00A7AC" stroke-linecap="round" stroke-linejoin="round"/>
<path d="M17.333 4.33317V2.1665" stroke="#00A7AC" stroke-linecap="round" stroke-linejoin="round"/>
<path d="M21.667 8.6665H23.8337" stroke="#00A7AC" stroke-linecap="round" stroke-linejoin="round"/>
<path d="M21.667 13H23.8337" stroke="#00A7AC" stroke-linecap="round" stroke-linejoin="round"/>
<path d="M21.667 17.3335H23.8337" stroke="#00A7AC" stroke-linecap="round" stroke-linejoin="round"/>
<path d="M17.333 21.6665V23.8332" stroke="#00A7AC" stroke-linecap="round" stroke-linejoin="round"/>
<path d="M13.0107 21.6665V23.8332" stroke="#00A7AC" stroke-linecap="round" stroke-linejoin="round"/>
<path d="M8.67773 21.6665V23.8332" stroke="#00A7AC" stroke-linecap="round" stroke-linejoin="round"/>
<path d="M2.16699 8.6665H4.33366" stroke="#00A7AC" stroke-linecap="round" stroke-linejoin="round"/>
<path d="M2.16699 13H4.33366" stroke="#00A7AC" stroke-linecap="round" stroke-linejoin="round"/>
<path d="M2.16699 17.3335H4.33366" stroke="#00A7AC" stroke-linecap="round" stroke-linejoin="round"/>
<path d="M12.9996 10.5083L11.9813 12.285C11.7538 12.675 11.938 13 12.393 13H13.6063C14.0613 13 14.2455 13.325 14.018 13.715L12.9996 15.4916" stroke="#00A7AC" stroke-linecap="round" stroke-linejoin="round"/>
</svg>
